ply
format ascii 1.0
comment Created by Blender 2.82 (sub 7) - www.blender.org, source file: ''
element vertex 24
property float x
property float y
property float z
property float nx
property float ny
property float nz
property uchar red
property uchar green
property uchar blue
property uchar alpha
element face 6
property list uchar uint vertex_indices
end_header
-1.000000 1.000000 1.000000 0.000000 1.000000 -0.000000 8 255 0 255
1.000000 1.000000 1.000000 0.000000 1.000000 -0.000000 255 82 219 255
1.000000 1.000000 -1.000000 0.000000 1.000000 -0.000000 255 12 215 255
-1.000000 1.000000 -1.000000 0.000000 1.000000 -0.000000 8 255 2 255
-1.000000 -1.000000 -1.000000 -0.000000 0.000000 -1.000000 8 255 0 255
-1.000000 1.000000 -1.000000 -0.000000 0.000000 -1.000000 8 255 2 255
1.000000 1.000000 -1.000000 -0.000000 0.000000 -1.000000 255 12 215 255
1.000000 -1.000000 -1.000000 -0.000000 0.000000 -1.000000 255 0 215 255
1.000000 -1.000000 -1.000000 1.000000 0.000000 0.000000 255 0 215 255
1.000000 1.000000 -1.000000 1.000000 0.000000 0.000000 255 12 215 255
1.000000 1.000000 1.000000 1.000000 0.000000 0.000000 255 82 219 255
1.000000 -1.000000 1.000000 1.000000 0.000000 0.000000 255 61 218 255
1.000000 -1.000000 1.000000 0.000000 -1.000000 0.000000 255 61 218 255
-1.000000 -1.000000 1.000000 0.000000 -1.000000 0.000000 8 255 3 255
-1.000000 -1.000000 -1.000000 0.000000 -1.000000 0.000000 8 255 0 255
1.000000 -1.000000 -1.000000 0.000000 -1.000000 0.000000 255 0 215 255
-1.000000 -1.000000 1.000000 -1.000000 0.000000 0.000000 8 255 3 255
-1.000000 1.000000 1.000000 -1.000000 0.000000 0.000000 8 255 0 255
-1.000000 1.000000 -1.000000 -1.000000 0.000000 0.000000 8 255 2 255
-1.000000 -1.000000 -1.000000 -1.000000 0.000000 0.000000 8 255 0 255
1.000000 -1.000000 1.000000 -0.000000 0.000000 1.000000 255 61 218 255
1.000000 1.000000 1.000000 -0.000000 0.000000 1.000000 255 82 219 255
-1.000000 1.000000 1.000000 -0.000000 0.000000 1.000000 8 255 0 255
-1.000000 -1.000000 1.000000 -0.000000 0.000000 1.000000 8 255 3 255
4 0 1 2 3
4 4 5 6 7
4 8 9 10 11
4 12 13 14 15
4 16 17 18 19
4 20 21 22 23
