ply
format ascii 1.0
comment Created by Blender 2.82 (sub 7) - www.blender.org, source file: ''
element vertex 28
property float x
property float y
property float z
property uchar red
property uchar green
property uchar blue
property uchar alpha
element face 12
property list uchar uint vertex_indices
end_header
-0.065102 0.601041 0.000000 0 0 0 40
-0.031034 0.601041 0.000000 0 0 0 80
-0.031034 1.000000 0.000000 1 1 1 80
-0.065102 1.000000 0.000000 1 1 1 40
-0.065102 0.000000 0.000000 1 1 1 40
-0.031034 0.000000 0.000000 2 2 2 80
0.061719 0.000000 0.000000 1 1 1 43
0.031034 0.000000 0.000000 2 2 2 80
0.031034 0.601041 0.000000 0 0 0 80
0.061719 0.601041 0.000000 0 0 0 43
-0.031034 0.000000 -0.000007 20 74 123 255
0.030793 0.000000 -0.000007 20 74 123 255
0.030793 0.193837 -0.000007 28 103 171 255
-0.031034 0.193837 -0.000007 28 103 171 255
-0.031034 0.601041 -0.000007 36 135 224 255
0.030793 0.601041 -0.000007 36 135 224 255
0.030793 1.000000 -0.000007 28 103 171 255
-0.031034 1.000000 -0.000007 28 103 171 255
0.030793 0.338121 -0.000007 36 135 224 255
-0.031034 0.338121 -0.000007 36 135 224 255
0.031034 1.000000 0.000000 1 1 1 80
0.061719 1.000000 0.000000 1 1 1 43
0.186292 0.601041 0.000000 0 0 0 0
0.186292 1.000000 0.000000 1 1 1 0
0.186292 0.000000 0.000000 0 0 0 0
-0.186292 0.000000 0.000000 0 0 0 0
-0.186292 0.601041 0.000000 0 0 0 0
-0.186292 1.000000 0.000000 1 1 1 0
4 0 1 2 3
4 4 5 1 0
4 6 7 8 9
4 10 11 12 13
4 14 15 16 17
4 13 12 18 19
4 19 18 15 14
4 9 8 20 21
4 22 9 21 23
4 24 6 9 22
4 25 4 0 26
4 26 0 3 27
