ply
format ascii 1.0
comment Created by Blender 2.82 (sub 7) - www.blender.org, source file: ''
element vertex 34
property float x
property float y
property float z
property float nx
property float ny
property float nz
property uchar red
property uchar green
property uchar blue
property uchar alpha
element face 16
property list uchar uint vertex_indices
end_header
0.085426 0.000000 0.000000 -0.000000 0.000000 -1.000000 123 211 250 42
0.085426 0.601041 0.000000 -0.000000 0.000000 -1.000000 123 211 250 42
0.186292 0.601041 0.000000 -0.000000 0.000000 -1.000000 123 211 250 0
0.186292 0.000000 0.000000 -0.000000 0.000000 -1.000000 123 211 250 0
-0.031034 0.000000 -0.000007 0.000000 0.000000 1.000000 75 199 230 255
0.030793 0.000000 -0.000007 0.000000 0.000000 1.000000 75 199 230 255
0.030793 0.193837 -0.000007 0.000000 0.000000 1.000000 83 221 255 255
-0.031034 0.193837 -0.000007 0.000000 0.000000 1.000000 81 216 250 255
-0.031034 0.601041 -0.000007 0.000000 0.000000 1.000000 82 220 254 255
0.030793 0.601041 -0.000007 0.000000 0.000000 1.000000 83 221 255 255
0.030793 1.000000 -0.000007 0.000000 0.000000 1.000000 75 199 230 255
-0.031034 1.000000 -0.000007 0.000000 0.000000 1.000000 75 199 230 255
0.030793 0.338121 -0.000007 0.000000 0.000000 1.000000 83 221 255 255
-0.031034 0.338121 -0.000007 0.000000 0.000000 1.000000 83 221 255 255
-0.085426 0.601041 0.000000 -0.000000 0.000000 1.000000 123 211 250 42
-0.085426 1.000000 0.000000 -0.000000 0.000000 1.000000 123 211 250 42
-0.186292 1.000000 0.000000 -0.000000 0.000000 1.000000 123 211 250 0
-0.186292 0.601041 0.000000 -0.000000 0.000000 1.000000 123 211 250 0
-0.186292 0.000000 0.000000 0.000000 -0.000000 1.000000 115 199 235 0
-0.085426 0.000000 0.000000 0.000000 -0.000000 1.000000 117 202 239 42
0.085426 1.000000 0.000000 -0.000000 0.000000 -1.000000 123 211 250 42
0.186292 1.000000 0.000000 -0.000000 0.000000 -1.000000 123 211 250 0
-0.031034 0.601041 0.000000 0.000000 -0.000000 1.000000 123 211 250 166
-0.059240 0.601041 0.000000 0.000000 -0.000000 1.000000 123 211 250 83
-0.059240 0.000000 0.000000 0.000000 -0.000000 1.000000 119 205 243 83
-0.031034 0.000000 0.000000 0.000000 -0.000000 1.000000 123 211 250 166
-0.031034 1.000000 0.000000 -0.000000 0.000000 1.000000 123 211 250 166
-0.059240 1.000000 0.000000 -0.000000 0.000000 1.000000 123 211 250 83
0.031034 0.601041 0.000000 -0.000000 0.000000 -1.000000 123 211 250 166
0.031034 1.000000 0.000000 -0.000000 0.000000 -1.000000 123 211 250 166
0.059240 1.000000 0.000000 -0.000000 0.000000 -1.000000 123 211 250 83
0.059240 0.601041 0.000000 -0.000000 0.000000 -1.000000 123 211 250 83
0.031034 0.000000 0.000000 -0.000000 0.000000 -1.000000 123 211 250 166
0.059240 0.000000 0.000000 -0.000000 0.000000 -1.000000 123 211 250 83
4 0 1 2 3
4 4 5 6 7
4 8 9 10 11
4 7 6 12 13
4 13 12 9 8
4 14 15 16 17
4 14 17 18 19
4 1 20 21 2
4 22 23 24 25
4 22 26 27 23
4 28 29 30 31
4 32 28 31 33
4 23 14 19 24
4 23 27 15 14
4 31 30 20 1
4 33 31 1 0
