ply
format ascii 1.0
comment Created by Blender 2.82 (sub 7) - www.blender.org, source file: ''
element vertex 45
property float x
property float y
property float z
property uchar red
property uchar green
property uchar blue
property uchar alpha
element face 18
property list uchar uint vertex_indices
end_header
0.029023 0.125000 0.000000 218 124 68 255
0.029023 0.000000 0.000000 181 103 57 255
-0.028023 0.000000 0.000000 206 117 64 255
-0.028023 0.125000 0.000000 231 131 72 255
0.029023 0.875000 0.000000 218 123 68 255
0.029023 0.750000 0.000000 255 144 79 255
-0.149799 0.750000 0.000000 255 144 79 255
-0.028023 0.875000 0.000000 218 123 68 255
0.029023 0.625000 0.000000 255 144 79 255
0.149500 0.500000 0.000000 255 144 79 255
-0.028023 0.500000 0.000000 255 144 79 255
-0.028023 0.625000 0.000000 255 144 79 255
0.029023 0.375000 0.000000 255 144 79 255
0.029023 0.250000 0.000000 255 144 79 255
-0.149799 0.250000 0.000000 255 144 79 255
-0.028023 0.375000 0.000000 255 144 79 255
0.029023 1.000000 0.000000 181 102 56 255
-0.028023 1.000000 0.000000 181 102 56 255
0.029023 1.000000 -0.002459 1 1 1 59
0.053468 0.999992 -0.002459 1 1 1 31
0.053658 0.599691 -0.002459 1 1 1 32
0.029023 0.625000 -0.002459 0 0 0 59
0.029023 0.000000 -0.002459 2 2 2 59
0.029023 0.375000 -0.002459 0 0 0 59
0.052498 0.398970 -0.002459 1 1 1 32
0.052688 0.000007 -0.002459 1 1 1 32
-0.049035 0.353899 -0.002993 2 2 2 32
-0.149799 0.250000 -0.002882 0 0 0 0
-0.149799 0.750000 -0.002882 5 5 5 0
-0.049035 0.646101 -0.002993 3 3 3 32
-0.049195 0.146321 -0.002771 0 0 0 32
-0.049229 0.000101 -0.002723 0 0 0 31
-0.149015 0.000215 -0.002779 0 0 0 0
-0.149015 0.999785 -0.002779 1 1 1 0
-0.049815 0.999897 -0.002724 2 2 2 31
-0.049849 0.852684 -0.002773 2 2 2 31
-0.028023 0.625000 -0.003089 2 2 2 59
-0.028023 0.375000 -0.003089 3 3 3 59
0.148411 0.999984 -0.002459 1 1 1 0
0.149500 0.500000 -0.002459 2 2 2 0
0.148411 0.000016 -0.002459 0 0 0 0
-0.028023 1.000000 -0.002675 2 2 2 59
-0.028023 0.875000 -0.002675 0 0 0 59
-0.028023 0.125000 -0.002675 0 0 0 59
-0.028023 0.000000 -0.002675 0 0 0 59
4 0 1 2 3
4 4 5 6 7
4 8 9 10 11
4 12 13 14 15
4 13 0 3 14
4 9 12 15 10
4 5 8 11 6
4 16 4 7 17
4 18 19 20 21
4 22 23 24 25
4 26 27 28 29
4 27 30 31 32
4 28 33 34 35
4 29 36 37 26
4 20 19 38 39
4 25 24 39 40
4 35 34 41 42
4 31 30 43 44
