ply
format ascii 1.0
comment Created by Blender 2.82 (sub 7) - www.blender.org, source file: ''
element vertex 121
property float x
property float y
property float z
property uchar red
property uchar green
property uchar blue
property uchar alpha
element face 70
property list uchar uint vertex_indices
end_header
0.174298 0.885376 -0.068119 117 117 117 255
-0.177583 0.883663 -0.068119 119 119 119 255
-0.136928 0.681361 0.000000 176 176 176 255
0.134395 0.682682 0.000000 176 176 176 255
-0.883663 -0.177583 -0.068119 117 117 117 255
-0.749303 -0.502808 -0.068119 117 117 117 255
-0.577761 -0.387697 0.000000 176 176 176 255
-0.681361 -0.136928 0.000000 176 176 176 255
0.749303 0.502808 -0.068119 120 120 120 255
0.499274 0.750414 -0.068119 119 119 119 255
0.384972 0.578618 0.000000 176 176 176 255
0.577761 0.387697 0.000000 176 176 176 255
-0.502808 0.749303 -0.068119 121 121 121 255
-0.387697 0.577761 0.000000 176 176 176 255
0.502808 -0.749303 -0.068119 117 117 117 255
0.750414 -0.499273 -0.068119 117 117 117 255
0.578618 -0.384972 0.000000 176 176 176 255
0.387697 -0.577761 0.000000 176 176 176 255
-0.499273 -0.750414 -0.068119 117 117 117 255
-0.384972 -0.578618 0.000000 176 176 176 255
0.885376 -0.174298 -0.068119 117 117 117 255
0.682682 -0.134395 0.000000 176 176 176 255
-0.750414 0.499273 -0.068119 119 119 119 255
-0.578618 0.384972 0.000000 176 176 176 255
-0.174298 -0.885376 -0.068119 117 117 117 255
-0.134395 -0.682682 0.000000 176 176 176 255
0.883663 0.177583 -0.068119 119 119 119 255
0.681361 0.136928 0.000000 176 176 176 255
-0.885376 0.174298 -0.068119 117 117 117 255
-0.682682 0.134395 0.000000 176 176 176 255
0.177583 -0.883663 -0.068119 117 117 117 255
0.136928 -0.681361 0.000000 176 176 176 255
-0.047734 0.237526 -0.058285 227 227 227 255
-0.043203 0.214979 -0.058285 148 148 148 255
0.042404 0.215396 -0.058285 148 148 148 255
0.046851 0.237986 -0.058285 227 227 227 255
-0.135153 0.201410 -0.058285 227 227 227 255
-0.122324 0.182292 -0.058285 148 148 148 255
0.134203 0.201709 -0.058285 227 227 227 255
0.121464 0.182562 -0.058285 148 148 148 255
0.182292 0.122324 -0.058285 148 148 148 255
0.201410 0.135153 -0.058285 227 227 227 255
0.201709 -0.134203 -0.058285 227 227 227 255
0.182562 -0.121464 -0.058285 148 148 148 255
0.122324 -0.182292 -0.058285 148 148 148 255
0.135153 -0.201410 -0.058285 227 227 227 255
0.237986 -0.046851 -0.058285 227 227 227 255
0.215396 -0.042404 -0.058285 148 148 148 255
-0.134203 -0.201709 -0.058285 227 227 227 255
-0.121464 -0.182562 -0.058285 148 148 148 255
-0.182292 -0.122324 -0.058285 148 148 148 255
-0.201410 -0.135153 -0.058285 227 227 227 255
-0.046851 -0.237986 -0.058285 227 227 227 255
-0.042404 -0.215396 -0.058285 148 148 148 255
-0.201709 0.134203 -0.058285 227 227 227 255
-0.182562 0.121464 -0.058285 148 148 148 255
-0.237986 0.046851 -0.058285 227 227 227 255
-0.215396 0.042404 -0.058285 148 148 148 255
0.237526 0.047734 -0.058285 227 227 227 255
0.214979 0.043203 -0.058285 148 148 148 255
0.047734 -0.237526 -0.058285 227 227 227 255
0.043203 -0.214979 -0.058285 148 148 148 255
-0.237526 -0.047734 -0.058285 227 227 227 255
-0.214979 -0.043203 -0.058285 148 148 148 255
0.000000 -0.000000 0.004872 207 207 207 255
-0.122324 0.182292 0.004872 117 117 117 255
-0.182562 0.121464 0.004872 118 118 118 255
-0.215396 0.042404 0.004872 119 119 119 255
-0.214979 -0.043203 0.004872 118 118 118 255
-0.182292 -0.122324 0.004872 117 117 117 255
-0.121464 -0.182562 0.004872 117 117 117 255
-0.042404 -0.215396 0.004872 117 117 117 255
0.043203 -0.214979 0.004872 117 117 117 255
0.122324 -0.182292 0.004872 117 117 117 255
0.182562 -0.121464 0.004872 117 117 117 255
0.215396 -0.042404 0.004872 117 117 117 255
0.214979 0.043203 0.004872 118 118 118 255
0.182292 0.122324 0.004872 119 119 119 255
0.121464 0.182562 0.004872 119 119 119 255
0.042404 0.215396 0.004872 118 118 118 255
-0.043203 0.214979 0.004872 118 118 118 255
-0.577761 -0.387697 -0.058285 148 148 148 255
-0.560409 -0.376053 -0.058285 227 227 227 255
-0.660897 -0.132816 -0.058285 227 227 227 255
-0.681361 -0.136928 -0.058285 148 148 148 255
-0.662179 0.130359 -0.058285 227 227 227 255
-0.682682 0.134395 -0.058285 148 148 148 255
0.387697 -0.577761 -0.058285 148 148 148 255
0.376053 -0.560409 -0.058285 227 227 227 255
0.132816 -0.660897 -0.058285 227 227 227 255
0.136928 -0.681361 -0.058285 148 148 148 255
0.577761 0.387697 -0.058285 148 148 148 255
0.560409 0.376053 -0.058285 227 227 227 255
0.660897 0.132816 -0.058285 227 227 227 255
0.681361 0.136928 -0.058285 148 148 148 255
0.662179 -0.130359 -0.058285 223 223 223 255
0.682682 -0.134395 -0.058285 148 148 148 255
-0.561240 0.373410 -0.058285 227 227 227 255
-0.578618 0.384972 -0.058285 148 148 148 255
-0.376053 0.560409 -0.058285 227 227 227 255
-0.387697 0.577761 -0.058285 148 148 148 255
-0.134395 -0.682682 -0.058285 148 148 148 255
-0.130359 -0.662179 -0.058285 227 227 227 255
-0.373410 -0.561240 -0.058285 227 227 227 255
-0.384972 -0.578618 -0.058285 148 148 148 255
0.561240 -0.373410 -0.058285 227 227 227 255
0.578618 -0.384972 -0.058285 148 148 148 255
0.134395 0.682682 -0.058285 148 148 148 255
0.130359 0.662179 -0.058285 227 227 227 255
0.373410 0.561240 -0.058285 227 227 227 255
0.384972 0.578618 -0.058285 148 148 148 255
-0.132816 0.660897 -0.058285 227 227 227 255
-0.136928 0.681361 -0.058285 148 148 148 255
-0.136472 0.681524 -0.006632 77 77 77 255
-0.047734 0.237526 -0.009048 77 77 77 255
0.046851 0.237986 -0.009048 77 77 77 255
0.133948 0.682845 -0.006632 77 77 77 255
0.136472 -0.681524 -0.006632 77 77 77 255
0.047734 -0.237526 -0.009048 77 77 77 255
-0.046851 -0.237986 -0.009048 79 79 79 255
-0.133948 -0.682845 -0.006632 77 77 77 255
4 0 1 2 3
4 4 5 6 7
4 8 9 10 11
4 1 12 13 2
4 14 15 16 17
4 9 0 3 10
4 6 5 18 19
4 15 20 21 16
4 13 12 22 23
4 18 24 25 19
4 21 20 26 27
4 22 28 29 23
4 25 24 30 31
4 26 8 11 27
4 30 14 17 31
4 32 33 34 35
4 36 37 33 32
4 38 39 40 41
4 35 34 39 38
4 42 43 44 45
4 46 47 43 42
4 48 49 50 51
4 52 53 49 48
4 54 55 37 36
4 56 57 55 54
4 58 59 47 46
4 41 40 59 58
4 60 61 53 52
4 45 44 61 60
4 62 63 57 56
4 51 50 63 62
4 64 65 66 67
4 64 67 68 69
4 64 69 70 71
4 64 71 72 73
4 64 73 74 75
4 64 75 76 77
4 64 77 78 79
4 64 79 80 65
4 81 82 83 84
4 84 83 85 86
4 87 88 89 90
4 91 92 93 94
4 94 93 95 96
4 86 85 97 98
4 98 97 99 100
4 101 102 103 104
4 104 103 82 81
4 96 95 105 106
4 106 105 88 87
4 107 108 109 110
4 110 109 92 91
4 100 99 111 112
4 83 62 56 85
4 82 51 62 83
4 88 45 60 89
4 93 58 46 95
4 92 41 58 93
4 97 54 36 99
4 85 56 54 97
4 103 48 51 82
4 102 52 48 103
4 105 42 45 88
4 95 46 42 105
4 109 38 41 92
4 108 35 38 109
4 99 36 32 111
4 28 4 7 29
4 113 114 115 116
4 117 118 119 120
